<svg width="466" height="206" viewBox="0 0 466 206" fill="none" xmlns="http://www.w3.org/2000/svg">
<g clip-path="url(#clip0_124_49)">
<path d="M240.587 68L262.757 66.3C263.263 70.6 264.19 73.8 265.708 76.1C268.152 79.7 271.524 81.5 275.992 81.5C279.28 81.5 281.893 80.6 283.663 78.7C285.349 77.2 286.361 74.8 286.361 72.3C286.361 69.9 285.433 67.6 283.832 66.1C282.146 64.3 278.184 62.5 271.946 60.9C261.746 58.2 254.412 54.6 250.113 50C245.813 45.7 243.369 39.4 243.537 32.7C243.537 28.1 244.717 23.5 246.909 19.7C249.438 15.4 252.894 12 257.025 10.1C261.493 7.79998 267.731 6.59998 275.571 6.59998C285.181 6.59998 292.514 8.69998 297.572 13C302.63 17.2 305.665 24 306.592 33.3L284.675 34.8C284.085 30.8 282.904 27.9 280.966 26C279.027 24.1 276.498 23.2 273.21 23.2C270.513 23.2 268.489 23.9 267.141 25.2C265.876 26.4 265.033 28.2 265.118 30.2C265.118 31.7 265.792 33.1 266.804 34C267.899 35.2 270.513 36.3 274.643 37.3C284.843 39.9 292.093 42.5 296.561 45.2C301.029 47.9 304.232 51.2 306.171 55.1C308.194 59.1 309.205 63.7 309.121 68.4C309.121 74 307.772 79.6 305.075 84.3C302.293 89.2 298.415 93 293.863 95.3C289.058 97.8 282.989 99.1 275.739 99.1C262.926 99.1 254.075 96.2 249.101 90.3C244.127 84.4 241.177 77 240.587 68ZM5.31078 97.6V8.19998H44.1722C51.3376 8.19998 56.9012 8.89998 60.6946 10.4C64.4038 11.8 67.6914 14.7 69.8831 18.6C72.3278 22.9 73.508 27.9 73.4237 33.1C73.6766 41.9 69.8831 50.3 63.3922 54.7C60.8632 56.4 58.0814 57.6 55.2153 58.2C57.3227 58.9 59.4302 60.1 61.2847 61.5C62.7178 62.9 63.898 64.5 64.9938 66.2C66.2583 67.9 67.3542 69.8 68.2815 71.8L79.5774 97.7H53.1078L40.6317 70.2C39.03 66.7 37.6813 64.4 36.4168 63.3C34.7308 61.9 32.7077 61.2 30.6845 61.2H28.6614V97.5H5.31078V97.6ZM28.6614 44.4H38.5242C40.6317 44.2 42.6548 43.8 44.678 43.2C46.1954 42.9 47.5441 41.9 48.4714 40.4C50.7475 36.8 50.4103 31.7 47.6284 28.6C46.1111 27.1 43.1606 26.3 38.9457 26.3H28.6614V44.4ZM0 174.2L22.1704 172.5C22.6762 176.8 23.6035 180 25.1208 182.3C27.4812 185.9 30.9374 187.8 35.4052 187.8C38.6928 187.8 41.3061 186.9 43.0763 185C44.7623 183.4 45.7739 181.1 45.7739 178.6C45.7739 176.2 44.8466 173.9 43.2449 172.4C41.559 170.6 37.597 168.8 31.2746 167.2C21.0745 164.5 13.7406 160.9 9.44139 156.3C5.14218 152 2.69754 145.7 2.86614 139C2.86614 134.4 4.04631 129.8 6.23806 126C8.767 121.7 12.2232 118.3 16.3538 116.4C20.8216 114.1 27.0597 112.9 34.8994 112.9C44.5094 112.9 51.8433 115 56.9012 119.3C61.9591 123.6 64.9095 130.3 65.8368 139.6L43.9193 141.1C43.3292 137.1 42.1491 134.2 40.2102 132.3C38.3556 130.4 35.7424 129.5 32.4548 129.6C29.7572 129.6 27.7341 130.3 26.3853 131.7C25.0365 132.9 24.2779 134.7 24.3622 136.7C24.3622 138.2 25.0365 139.6 26.0481 140.5C27.144 141.7 29.7572 142.8 33.8878 143.8C44.0879 146.4 51.3375 149 55.8054 151.7C60.2732 154.4 63.4765 157.7 65.4153 161.6C67.4385 165.6 68.4501 170.2 68.4501 174.8C68.4501 180.4 67.017 185.9 64.4038 190.6C61.6219 195.5 57.7442 199.3 53.1921 201.6C48.3871 204.1 42.3177 205.4 35.068 205.4C22.2547 205.4 13.4034 202.5 8.42981 196.6C3.45622 190.6 0.674385 183.2 0 174.2H0Z" fill="black"/>
<path d="M112.116 167.2L132.517 174.5C131.421 180.6 129.145 186.4 126.026 191.5C123.16 196 119.366 199.5 115.067 201.8C110.683 204.1 105.12 205.3 98.3759 205.3C90.199 205.3 83.4551 203.9 78.313 201.1C73.0865 198.3 68.6187 193.3 64.8253 186.2C61.0318 179.1 59.1773 170 59.1773 158.9C59.1773 144.1 62.4649 132.7 69.1245 124.8C75.784 116.9 85.1411 112.9 97.28 112.9C106.806 112.9 114.224 115.2 119.703 119.7C125.098 124.3 129.145 131.3 131.842 140.7L111.274 146.1C110.768 144 110.009 141.9 108.997 140.1C107.733 138 106.131 136.4 104.192 135.2C102.254 134 100.062 133.5 97.8701 133.5C92.5593 133.5 88.513 136 85.7312 141.1C83.6237 144.8 82.5279 150.7 82.5279 158.7C82.5279 168.6 83.7923 175.4 86.3213 179.1C88.8502 182.8 92.3907 184.6 97.0271 184.6C101.495 184.6 104.867 183.1 107.143 180.2C109.419 177.1 111.105 172.8 112.116 167.2ZM159.745 114.4H183.011V145.7H208.469V114.4H231.904V203.8H208.469V167.6H183.011V203.8H159.745V114.4V114.4Z" fill="black"/>
<path d="M228.701 159.1C228.701 144.5 232.157 133.1 238.985 125C245.813 116.9 255.423 112.8 267.647 112.8C280.207 112.8 289.817 116.8 296.645 124.8C303.473 132.8 306.845 144 306.845 158.4C306.845 168.9 305.328 177.4 302.377 184.1C299.511 190.7 295.043 196.1 289.564 199.7C283.916 203.4 276.919 205.3 268.574 205.3C260.06 205.3 253.063 203.7 247.499 200.5C241.767 197.1 237.046 191.8 233.927 185.3C230.471 178.3 228.701 169.6 228.701 159.1ZM251.967 159.2C251.967 168.2 253.4 174.7 256.182 178.7C258.964 182.6 262.842 184.6 267.731 184.6C272.704 184.6 276.582 182.7 279.364 178.8C282.146 174.9 283.495 168 283.495 158C283.495 149.6 282.062 143.4 279.195 139.6C276.329 135.7 272.452 133.8 267.562 133.8C263.263 133.6 259.132 135.8 256.266 139.7C253.4 143.6 251.967 150.1 251.967 159.2V159.2ZM330.702 159.1C330.702 144.5 334.158 133.1 340.986 125C347.814 116.9 357.424 112.8 369.647 112.8C382.208 112.8 391.902 116.8 398.646 124.8C405.39 132.8 408.846 144 408.846 158.4C408.846 168.9 407.329 177.4 404.378 184.1C401.512 190.7 397.044 196.1 391.565 199.7C385.917 203.4 378.92 205.3 370.575 205.3C362.06 205.3 355.064 203.7 349.5 200.5C343.768 197.1 339.047 191.8 335.928 185.3C332.472 178.3 330.702 169.6 330.702 159.1V159.1ZM353.968 159.2C353.968 168.2 355.401 174.7 358.183 178.7C360.965 182.6 364.842 184.6 369.732 184.6C374.705 184.6 378.583 182.7 381.365 178.8C384.147 174.9 385.495 168 385.495 158C385.495 149.6 384.062 143.4 381.196 139.6C378.33 135.7 374.452 133.8 369.563 133.8C365.264 133.6 361.049 135.8 358.267 139.7C355.401 143.6 353.968 150.1 353.968 159.2V159.2Z" fill="black"/>
<path d="M406.401 114.4H429.668V181.8H466V203.8H406.317V114.4H406.401Z" fill="black"/>
<path d="M380.757 109.241C404.181 88.3007 411.404 52.804 396.89 29.9567C382.376 7.10933 351.621 5.56311 328.197 26.5031C304.773 47.4431 297.55 82.9398 312.064 105.787C326.578 128.634 357.332 130.181 380.757 109.241Z" fill="white"/>
<path d="M252.325 56.5405L373.371 -51.6683L457.131 80.1847L336.085 188.394L252.325 56.5405Z" fill="white"/>
<path d="M380.757 109.241C404.181 88.3007 411.404 52.804 396.89 29.9567C382.376 7.10933 351.621 5.56311 328.197 26.5031C304.773 47.4431 297.55 82.9398 312.064 105.787C326.578 128.634 357.332 130.181 380.757 109.241Z" fill="white"/>
<path d="M286.032 65.3447L370.793 -10.4238L423.402 72.3947L338.641 148.163L286.032 65.3447Z" fill="white"/>
<path d="M380.757 109.241C404.181 88.3007 411.404 52.804 396.89 29.9567C382.376 7.10933 351.621 5.56311 328.197 26.5031C304.773 47.4431 297.55 82.9398 312.064 105.787C326.578 128.634 357.332 130.181 380.757 109.241Z" fill="white" stroke="black" stroke-width="4" stroke-miterlimit="10"/>
<path d="M286.032 65.3447L370.793 -10.4238L423.402 72.3947L338.641 148.163L286.032 65.3447Z" stroke="black" stroke-width="4" stroke-miterlimit="10"/>
<path d="M380.757 109.241C404.181 88.3007 411.404 52.804 396.89 29.9567C382.376 7.10933 351.621 5.56311 328.197 26.5031C304.773 47.4431 297.55 82.9398 312.064 105.787C326.578 128.634 357.332 130.181 380.757 109.241Z" stroke="black" stroke-width="4" stroke-miterlimit="10"/>
<path d="M286.032 65.3447L370.793 -10.4238L423.402 72.3947L338.641 148.163L286.032 65.3447Z" fill="white"/>
<path d="M380.757 109.241C404.181 88.3007 411.404 52.804 396.89 29.9567C382.376 7.10933 351.621 5.56311 328.197 26.5031C304.773 47.4431 297.55 82.9398 312.064 105.787C326.578 128.634 357.332 130.181 380.757 109.241Z" fill="white" stroke="black" stroke-width="4" stroke-miterlimit="10"/>
<path d="M286.032 65.3447L370.793 -10.4238L423.402 72.3947L338.641 148.163L286.032 65.3447Z" stroke="black" stroke-width="4" stroke-miterlimit="10"/>
<path d="M252.325 56.5405L373.371 -51.6683L457.131 80.1847L336.085 188.394L252.325 56.5405Z" stroke="black" stroke-width="4" stroke-miterlimit="10"/>
<path d="M380.757 109.241C404.181 88.3007 411.404 52.804 396.89 29.9567C382.376 7.10933 351.621 5.56311 328.197 26.5031C304.773 47.4431 297.55 82.9398 312.064 105.787C326.578 128.634 357.332 130.181 380.757 109.241Z" stroke="black" stroke-width="4" stroke-miterlimit="10"/>
<path d="M330.786 61.3L339.216 54.3L349.584 71.8C351.355 74.6 352.703 77.6 353.715 80.9C354.305 83.4 354.136 86.1 353.293 88.5C352.198 91.5 350.427 94 348.067 95.8C345.285 98.1 342.925 99.4 340.902 99.8C338.963 100.2 336.94 99.8 335.085 98.8C333.062 97.6 331.292 95.9 329.943 93.7L337.192 85.7C337.783 86.8 338.541 87.8 339.384 88.6C339.974 89.1 340.649 89.4 341.407 89.4C341.997 89.4 342.588 89.1 343.009 88.7C343.852 88.1 344.442 86.9 344.358 85.7C344.105 84 343.515 82.3 342.588 81L330.786 61.3V61.3ZM356.075 72.4L363.746 65.2C364.589 66.4 365.685 67.3 366.865 67.8C368.551 68.4 370.322 68 371.755 66.7C372.766 65.9 373.609 64.8 373.946 63.4C374.452 61.6 373.609 59.6 372.092 59C371.839 58.9 371.586 58.8 371.333 58.8C370.322 58.7 368.551 59.2 365.938 60.5C361.639 62.6 358.267 63.4 355.738 63.1C353.293 62.8 351.017 61.3 349.669 58.8C348.657 57.1 348.151 55.1 348.067 53.1C348.067 50.8 348.573 48.5 349.669 46.6C351.27 43.9 353.209 41.6 355.569 39.8C359.11 36.9 362.229 35.5 364.927 35.5C367.624 35.5 370.153 37 372.513 40.1L364.927 47.2C363.409 44.9 360.543 44.4 358.604 46.2L358.351 46.5C357.508 47.1 356.918 48 356.581 49.1C356.328 49.9 356.497 50.8 356.918 51.5C357.255 52 357.761 52.4 358.351 52.4C359.026 52.5 360.206 52.1 361.892 51.2C366.107 49.1 369.31 47.9 371.502 47.5C373.356 47.1 375.295 47.3 377.065 48.2C378.667 49 380.016 50.4 380.943 52.1C382.123 54.1 382.798 56.5 382.882 59C382.966 61.6 382.376 64.1 381.196 66.3C379.679 69 377.74 71.3 375.464 73.1C370.827 76.9 367.034 78.5 363.999 77.9C360.712 77.3 358.014 75.3 356.075 72.4V72.4Z" fill="black"/>
</g>
<defs>
<clipPath id="clip0_124_49">
<rect width="466" height="205.3" fill="white"/>
</clipPath>
</defs>
</svg>
